<?xml version="1.0" encoding="utf-8" standalone="no"?>
<!DOCTYPE svg PUBLIC "-//W3C//DTD SVG 1.1//EN"
  "http://www.w3.org/Graphics/SVG/1.1/DTD/svg11.dtd">
<svg xmlns:xlink="http://www.w3.org/1999/xlink" width="288pt" height="180pt" viewBox="0 0 288 180" xmlns="http://www.w3.org/2000/svg" version="1.1">
 <metadata>
  <rdf:RDF xmlns:dc="http://purl.org/dc/elements/1.1/" xmlns:cc="http://creativecommons.org/ns#" xmlns:rdf="http://www.w3.org/1999/02/22-rdf-syntax-ns#">
   <cc:Work>
    <dc:type rdf:resource="http://purl.org/dc/dcmitype/StillImage"/>
    <dc:date>2023-09-19T11:07:34.361668</dc:date>
    <dc:format>image/svg+xml</dc:format>
    <dc:creator>
     <cc:Agent>
      <dc:title>Matplotlib v3.5.0, https://matplotlib.org/</dc:title>
     </cc:Agent>
    </dc:creator>
   </cc:Work>
  </rdf:RDF>
 </metadata>
 <defs>
  <style type="text/css">*{stroke-linejoin: round; stroke-linecap: butt}</style>
 </defs>
 <g id="figure_1">
  <g id="patch_1">
   <path d="M 0 180 
L 288 180 
L 288 0 
L 0 0 
z
" style="fill: #ffffff"/>
  </g>
  <g id="axes_1">
   <g id="patch_2">
    <path d="M 36 160.2 
L 259.2 160.2 
L 259.2 21.6 
L 36 21.6 
z
" style="fill: #ffffff"/>
   </g>
   <g id="matplotlib.axis_1">
    <g id="text_1">
     <!-- Retinal position / Joint angle -->
     <g transform="translate(77.532812 171.798438)scale(0.1 -0.1)">
      <defs>
       <path id="DejaVuSans-52" d="M 2841 2188 
Q 3044 2119 3236 1894 
Q 3428 1669 3622 1275 
L 4263 0 
L 3584 0 
L 2988 1197 
Q 2756 1666 2539 1819 
Q 2322 1972 1947 1972 
L 1259 1972 
L 1259 0 
L 628 0 
L 628 4666 
L 2053 4666 
Q 2853 4666 3247 4331 
Q 3641 3997 3641 3322 
Q 3641 2881 3436 2590 
Q 3231 2300 2841 2188 
z
M 1259 4147 
L 1259 2491 
L 2053 2491 
Q 2509 2491 2742 2702 
Q 2975 2913 2975 3322 
Q 2975 3731 2742 3939 
Q 2509 4147 2053 4147 
L 1259 4147 
z
" transform="scale(0.015625)"/>
       <path id="DejaVuSans-65" d="M 3597 1894 
L 3597 1613 
L 953 1613 
Q 991 1019 1311 708 
Q 1631 397 2203 397 
Q 2534 397 2845 478 
Q 3156 559 3463 722 
L 3463 178 
Q 3153 47 2828 -22 
Q 2503 -91 2169 -91 
Q 1331 -91 842 396 
Q 353 884 353 1716 
Q 353 2575 817 3079 
Q 1281 3584 2069 3584 
Q 2775 3584 3186 3129 
Q 3597 2675 3597 1894 
z
M 3022 2063 
Q 3016 2534 2758 2815 
Q 2500 3097 2075 3097 
Q 1594 3097 1305 2825 
Q 1016 2553 972 2059 
L 3022 2063 
z
" transform="scale(0.015625)"/>
       <path id="DejaVuSans-74" d="M 1172 4494 
L 1172 3500 
L 2356 3500 
L 2356 3053 
L 1172 3053 
L 1172 1153 
Q 1172 725 1289 603 
Q 1406 481 1766 481 
L 2356 481 
L 2356 0 
L 1766 0 
Q 1100 0 847 248 
Q 594 497 594 1153 
L 594 3053 
L 172 3053 
L 172 3500 
L 594 3500 
L 594 4494 
L 1172 4494 
z
" transform="scale(0.015625)"/>
       <path id="DejaVuSans-69" d="M 603 3500 
L 1178 3500 
L 1178 0 
L 603 0 
L 603 3500 
z
M 603 4863 
L 1178 4863 
L 1178 4134 
L 603 4134 
L 603 4863 
z
" transform="scale(0.015625)"/>
       <path id="DejaVuSans-6e" d="M 3513 2113 
L 3513 0 
L 2938 0 
L 2938 2094 
Q 2938 2591 2744 2837 
Q 2550 3084 2163 3084 
Q 1697 3084 1428 2787 
Q 1159 2491 1159 1978 
L 1159 0 
L 581 0 
L 581 3500 
L 1159 3500 
L 1159 2956 
Q 1366 3272 1645 3428 
Q 1925 3584 2291 3584 
Q 2894 3584 3203 3211 
Q 3513 2838 3513 2113 
z
" transform="scale(0.015625)"/>
       <path id="DejaVuSans-61" d="M 2194 1759 
Q 1497 1759 1228 1600 
Q 959 1441 959 1056 
Q 959 750 1161 570 
Q 1363 391 1709 391 
Q 2188 391 2477 730 
Q 2766 1069 2766 1631 
L 2766 1759 
L 2194 1759 
z
M 3341 1997 
L 3341 0 
L 2766 0 
L 2766 531 
Q 2569 213 2275 61 
Q 1981 -91 1556 -91 
Q 1019 -91 701 211 
Q 384 513 384 1019 
Q 384 1609 779 1909 
Q 1175 2209 1959 2209 
L 2766 2209 
L 2766 2266 
Q 2766 2663 2505 2880 
Q 2244 3097 1772 3097 
Q 1472 3097 1187 3025 
Q 903 2953 641 2809 
L 641 3341 
Q 956 3463 1253 3523 
Q 1550 3584 1831 3584 
Q 2591 3584 2966 3190 
Q 3341 2797 3341 1997 
z
" transform="scale(0.015625)"/>
       <path id="DejaVuSans-6c" d="M 603 4863 
L 1178 4863 
L 1178 0 
L 603 0 
L 603 4863 
z
" transform="scale(0.015625)"/>
       <path id="DejaVuSans-20" transform="scale(0.015625)"/>
       <path id="DejaVuSans-70" d="M 1159 525 
L 1159 -1331 
L 581 -1331 
L 581 3500 
L 1159 3500 
L 1159 2969 
Q 1341 3281 1617 3432 
Q 1894 3584 2278 3584 
Q 2916 3584 3314 3078 
Q 3713 2572 3713 1747 
Q 3713 922 3314 415 
Q 2916 -91 2278 -91 
Q 1894 -91 1617 61 
Q 1341 213 1159 525 
z
M 3116 1747 
Q 3116 2381 2855 2742 
Q 2594 3103 2138 3103 
Q 1681 3103 1420 2742 
Q 1159 2381 1159 1747 
Q 1159 1113 1420 752 
Q 1681 391 2138 391 
Q 2594 391 2855 752 
Q 3116 1113 3116 1747 
z
" transform="scale(0.015625)"/>
       <path id="DejaVuSans-6f" d="M 1959 3097 
Q 1497 3097 1228 2736 
Q 959 2375 959 1747 
Q 959 1119 1226 758 
Q 1494 397 1959 397 
Q 2419 397 2687 759 
Q 2956 1122 2956 1747 
Q 2956 2369 2687 2733 
Q 2419 3097 1959 3097 
z
M 1959 3584 
Q 2709 3584 3137 3096 
Q 3566 2609 3566 1747 
Q 3566 888 3137 398 
Q 2709 -91 1959 -91 
Q 1206 -91 779 398 
Q 353 888 353 1747 
Q 353 2609 779 3096 
Q 1206 3584 1959 3584 
z
" transform="scale(0.015625)"/>
       <path id="DejaVuSans-73" d="M 2834 3397 
L 2834 2853 
Q 2591 2978 2328 3040 
Q 2066 3103 1784 3103 
Q 1356 3103 1142 2972 
Q 928 2841 928 2578 
Q 928 2378 1081 2264 
Q 1234 2150 1697 2047 
L 1894 2003 
Q 2506 1872 2764 1633 
Q 3022 1394 3022 966 
Q 3022 478 2636 193 
Q 2250 -91 1575 -91 
Q 1294 -91 989 -36 
Q 684 19 347 128 
L 347 722 
Q 666 556 975 473 
Q 1284 391 1588 391 
Q 1994 391 2212 530 
Q 2431 669 2431 922 
Q 2431 1156 2273 1281 
Q 2116 1406 1581 1522 
L 1381 1569 
Q 847 1681 609 1914 
Q 372 2147 372 2553 
Q 372 3047 722 3315 
Q 1072 3584 1716 3584 
Q 2034 3584 2315 3537 
Q 2597 3491 2834 3397 
z
" transform="scale(0.015625)"/>
       <path id="DejaVuSans-2f" d="M 1625 4666 
L 2156 4666 
L 531 -594 
L 0 -594 
L 1625 4666 
z
" transform="scale(0.015625)"/>
       <path id="DejaVuSans-4a" d="M 628 4666 
L 1259 4666 
L 1259 325 
Q 1259 -519 939 -900 
Q 619 -1281 -91 -1281 
L -331 -1281 
L -331 -750 
L -134 -750 
Q 284 -750 456 -515 
Q 628 -281 628 325 
L 628 4666 
z
" transform="scale(0.015625)"/>
       <path id="DejaVuSans-67" d="M 2906 1791 
Q 2906 2416 2648 2759 
Q 2391 3103 1925 3103 
Q 1463 3103 1205 2759 
Q 947 2416 947 1791 
Q 947 1169 1205 825 
Q 1463 481 1925 481 
Q 2391 481 2648 825 
Q 2906 1169 2906 1791 
z
M 3481 434 
Q 3481 -459 3084 -895 
Q 2688 -1331 1869 -1331 
Q 1566 -1331 1297 -1286 
Q 1028 -1241 775 -1147 
L 775 -588 
Q 1028 -725 1275 -790 
Q 1522 -856 1778 -856 
Q 2344 -856 2625 -561 
Q 2906 -266 2906 331 
L 2906 616 
Q 2728 306 2450 153 
Q 2172 0 1784 0 
Q 1141 0 747 490 
Q 353 981 353 1791 
Q 353 2603 747 3093 
Q 1141 3584 1784 3584 
Q 2172 3584 2450 3431 
Q 2728 3278 2906 2969 
L 2906 3500 
L 3481 3500 
L 3481 434 
z
" transform="scale(0.015625)"/>
      </defs>
      <use xlink:href="#DejaVuSans-52"/>
      <use xlink:href="#DejaVuSans-65" x="64.982422"/>
      <use xlink:href="#DejaVuSans-74" x="126.505859"/>
      <use xlink:href="#DejaVuSans-69" x="165.714844"/>
      <use xlink:href="#DejaVuSans-6e" x="193.498047"/>
      <use xlink:href="#DejaVuSans-61" x="256.876953"/>
      <use xlink:href="#DejaVuSans-6c" x="318.15625"/>
      <use xlink:href="#DejaVuSans-20" x="345.939453"/>
      <use xlink:href="#DejaVuSans-70" x="377.726562"/>
      <use xlink:href="#DejaVuSans-6f" x="441.203125"/>
      <use xlink:href="#DejaVuSans-73" x="502.384766"/>
      <use xlink:href="#DejaVuSans-69" x="554.484375"/>
      <use xlink:href="#DejaVuSans-74" x="582.267578"/>
      <use xlink:href="#DejaVuSans-69" x="621.476562"/>
      <use xlink:href="#DejaVuSans-6f" x="649.259766"/>
      <use xlink:href="#DejaVuSans-6e" x="710.441406"/>
      <use xlink:href="#DejaVuSans-20" x="773.820312"/>
      <use xlink:href="#DejaVuSans-2f" x="805.607422"/>
      <use xlink:href="#DejaVuSans-20" x="839.298828"/>
      <use xlink:href="#DejaVuSans-4a" x="871.085938"/>
      <use xlink:href="#DejaVuSans-6f" x="900.578125"/>
      <use xlink:href="#DejaVuSans-69" x="961.759766"/>
      <use xlink:href="#DejaVuSans-6e" x="989.542969"/>
      <use xlink:href="#DejaVuSans-74" x="1052.921875"/>
      <use xlink:href="#DejaVuSans-20" x="1092.130859"/>
      <use xlink:href="#DejaVuSans-61" x="1123.917969"/>
      <use xlink:href="#DejaVuSans-6e" x="1185.197266"/>
      <use xlink:href="#DejaVuSans-67" x="1248.576172"/>
      <use xlink:href="#DejaVuSans-6c" x="1312.052734"/>
      <use xlink:href="#DejaVuSans-65" x="1339.835938"/>
     </g>
    </g>
   </g>
   <g id="matplotlib.axis_2">
    <g id="text_2">
     <!-- Activation -->
     <g transform="translate(29.920312 115.932031)rotate(-90)scale(0.1 -0.1)">
      <defs>
       <path id="DejaVuSans-41" d="M 2188 4044 
L 1331 1722 
L 3047 1722 
L 2188 4044 
z
M 1831 4666 
L 2547 4666 
L 4325 0 
L 3669 0 
L 3244 1197 
L 1141 1197 
L 716 0 
L 50 0 
L 1831 4666 
z
" transform="scale(0.015625)"/>
       <path id="DejaVuSans-63" d="M 3122 3366 
L 3122 2828 
Q 2878 2963 2633 3030 
Q 2388 3097 2138 3097 
Q 1578 3097 1268 2742 
Q 959 2388 959 1747 
Q 959 1106 1268 751 
Q 1578 397 2138 397 
Q 2388 397 2633 464 
Q 2878 531 3122 666 
L 3122 134 
Q 2881 22 2623 -34 
Q 2366 -91 2075 -91 
Q 1284 -91 818 406 
Q 353 903 353 1747 
Q 353 2603 823 3093 
Q 1294 3584 2113 3584 
Q 2378 3584 2631 3529 
Q 2884 3475 3122 3366 
z
" transform="scale(0.015625)"/>
       <path id="DejaVuSans-76" d="M 191 3500 
L 800 3500 
L 1894 563 
L 2988 3500 
L 3597 3500 
L 2284 0 
L 1503 0 
L 191 3500 
z
" transform="scale(0.015625)"/>
      </defs>
      <use xlink:href="#DejaVuSans-41"/>
      <use xlink:href="#DejaVuSans-63" x="66.658203"/>
      <use xlink:href="#DejaVuSans-74" x="121.638672"/>
      <use xlink:href="#DejaVuSans-69" x="160.847656"/>
      <use xlink:href="#DejaVuSans-76" x="188.630859"/>
      <use xlink:href="#DejaVuSans-61" x="247.810547"/>
      <use xlink:href="#DejaVuSans-74" x="309.089844"/>
      <use xlink:href="#DejaVuSans-69" x="348.298828"/>
      <use xlink:href="#DejaVuSans-6f" x="376.082031"/>
      <use xlink:href="#DejaVuSans-6e" x="437.263672"/>
     </g>
    </g>
   </g>
   <g id="line2d_1">
    <path d="M 8.1 160.2 
L 10.918182 160.2 
L 13.736364 160.2 
L 16.554545 160.2 
L 19.372727 160.2 
L 22.190909 160.2 
L 25.009091 160.2 
L 27.827273 160.199999 
L 30.645455 160.199997 
L 33.463636 160.199994 
L 36.281818 160.199986 
L 39.1 160.199969 
L 41.918182 160.199932 
L 44.736364 160.199856 
L 47.554545 160.199699 
L 50.372727 160.199386 
L 53.190909 160.19877 
L 56.009091 160.197589 
L 58.827273 160.195368 
L 61.645455 160.19128 
L 64.463636 160.183916 
L 67.281818 160.170933 
L 70.1 160.148531 
L 72.918182 160.110705 
L 75.736364 160.04821 
L 78.554545 159.947187 
L 81.372727 159.787434 
L 84.190909 159.540332 
L 87.009091 159.166537 
L 89.827273 158.613639 
L 92.645455 157.814129 
L 95.463636 156.684155 
L 98.281818 155.123666 
L 101.1 153.018611 
L 103.918182 150.245845 
L 106.736364 146.681201 
L 109.554545 142.210893 
L 112.372727 136.745897 
L 115.190909 130.238344 
L 118.009091 122.698336 
L 120.827273 114.208982 
L 123.645455 104.937152 
L 126.463636 95.137425 
L 129.281818 85.147185 
L 132.1 75.371756 
L 134.918182 66.259748 
L 137.736364 58.270308 
L 140.554545 51.835394 
L 143.372727 47.321312 
L 146.190909 44.994237 
L 149.009091 44.994237 
L 151.827273 47.321312 
L 154.645455 51.835394 
L 157.463636 58.270308 
L 160.281818 66.259748 
L 163.1 75.371756 
L 165.918182 85.147185 
L 168.736364 95.137425 
L 171.554545 104.937152 
L 174.372727 114.208982 
L 177.190909 122.698336 
L 180.009091 130.238344 
L 182.827273 136.745897 
L 185.645455 142.210893 
L 188.463636 146.681201 
L 191.281818 150.245845 
L 194.1 153.018611 
L 196.918182 155.123666 
L 199.736364 156.684155 
L 202.554545 157.814129 
L 205.372727 158.613639 
L 208.190909 159.166537 
L 211.009091 159.540332 
L 213.827273 159.787434 
L 216.645455 159.947187 
L 219.463636 160.04821 
L 222.281818 160.110705 
L 225.1 160.148531 
L 227.918182 160.170933 
L 230.736364 160.183916 
L 233.554545 160.19128 
L 236.372727 160.195368 
L 239.190909 160.197589 
L 242.009091 160.19877 
L 244.827273 160.199386 
L 247.645455 160.199699 
L 250.463636 160.199856 
L 253.281818 160.199932 
L 256.1 160.199969 
L 258.918182 160.199986 
L 261.736364 160.199994 
L 264.554545 160.199997 
L 267.372727 160.199999 
L 270.190909 160.2 
L 273.009091 160.2 
L 275.827273 160.2 
L 278.645455 160.2 
L 281.463636 160.2 
L 284.281818 160.2 
L 287.1 160.2 
" clip-path="url(#p049e445df2)" style="fill: none; stroke: #4151fb; stroke-width: 1.5; stroke-linecap: square"/>
   </g>
   <g id="line2d_2">
    <path d="M 8.1 160.2 
L 10.354545 160.2 
L 12.609091 160.2 
L 14.863636 160.2 
L 17.118182 160.2 
L 19.372727 160.2 
L 21.627273 160.2 
L 23.881818 160.2 
L 26.136364 160.2 
L 28.390909 160.2 
L 30.645455 160.2 
L 32.9 160.2 
L 35.154545 160.2 
L 37.409091 160.2 
L 39.663636 160.2 
L 41.918182 160.2 
L 44.172727 160.2 
L 46.427273 160.2 
L 48.681818 160.2 
L 50.936364 160.2 
L 53.190909 160.2 
L 55.445455 160.2 
L 57.7 160.2 
L 59.954545 160.2 
L 62.209091 160.2 
L 64.463636 160.2 
L 66.718182 160.2 
L 68.972727 160.2 
L 71.227273 160.2 
L 73.481818 160.2 
L 75.736364 160.2 
L 77.990909 160.2 
L 80.245455 160.2 
L 82.5 160.2 
L 84.754545 160.2 
L 87.009091 160.2 
L 89.263636 160.2 
L 91.518182 160.2 
L 93.772727 160.2 
L 96.027273 160.2 
L 98.281818 160.2 
L 100.536364 160.2 
L 102.790909 160.2 
L 105.045455 160.2 
L 107.3 160.2 
L 109.554545 160.2 
L 111.809091 160.2 
L 114.063636 160.2 
L 116.318182 160.2 
L 118.572727 160.2 
L 120.827273 159.033333 
L 123.081818 156.7 
L 125.336364 154.366667 
L 127.590909 152.033333 
L 129.845455 149.7 
L 132.1 147.366667 
L 134.354545 145.033333 
L 136.609091 142.7 
L 138.863636 140.366667 
L 141.118182 138.033333 
L 143.372727 135.7 
L 145.627273 133.366667 
L 147.881818 131.033333 
L 150.136364 128.7 
L 152.390909 126.366667 
L 154.645455 124.033333 
L 156.9 121.7 
L 159.154545 119.366667 
L 161.409091 117.033333 
L 163.663636 114.7 
L 165.918182 112.366667 
L 168.172727 110.033333 
L 170.427273 107.7 
L 172.681818 105.366667 
L 174.936364 103.033333 
L 177.190909 100.7 
L 179.445455 98.366667 
L 181.7 96.033333 
L 183.954545 93.7 
L 186.209091 91.366667 
L 188.463636 89.033333 
L 190.718182 86.7 
L 192.972727 84.366667 
L 195.227273 82.033333 
L 197.481818 79.7 
L 199.736364 77.366667 
L 201.990909 75.033333 
L 204.245455 72.7 
L 206.5 70.366667 
L 208.754545 68.033333 
L 211.009091 65.7 
L 213.263636 63.366667 
L 215.518182 61.033333 
L 217.772727 58.7 
L 220.027273 56.366667 
L 222.281818 54.033333 
L 224.536364 51.7 
L 226.790909 49.366667 
L 229.045455 47.033333 
L 231.3 44.7 
" clip-path="url(#p049e445df2)" style="fill: none; stroke: #ff7f2a; stroke-width: 1.5; stroke-linecap: square"/>
   </g>
   <g id="patch_3">
    <path d="M 36 160.2 
L 36 21.6 
" style="fill: none; stroke: #000000; stroke-width: 0.8; stroke-linejoin: miter; stroke-linecap: square"/>
   </g>
   <g id="patch_4">
    <path d="M 259.2 160.2 
L 259.2 21.6 
" style="fill: none; stroke: #000000; stroke-width: 0.8; stroke-linejoin: miter; stroke-linecap: square"/>
   </g>
   <g id="patch_5">
    <path d="M 36 160.2 
L 259.2 160.2 
" style="fill: none; stroke: #000000; stroke-width: 0.8; stroke-linejoin: miter; stroke-linecap: square"/>
   </g>
   <g id="patch_6">
    <path d="M 36 21.6 
L 259.2 21.6 
" style="fill: none; stroke: #000000; stroke-width: 0.8; stroke-linejoin: miter; stroke-linecap: square"/>
   </g>
  </g>
 </g>
 <defs>
  <clipPath id="p049e445df2">
   <rect x="36" y="21.6" width="223.2" height="138.6"/>
  </clipPath>
 </defs>
</svg>
